HIERARCHY
ROOT Hips
{
  OFFSET -33.9132 29.2015 117.021
  CHANNELS 6 Xposition Yposition Zposition Zrotation Xrotation Yrotation
  JOINT LeftUpLeg
  {
    OFFSET 8.64259 1.95398 -2.38835
    CHANNELS 3 Zrotation Xrotation Yrotation
    JOINT LeftLeg
    {
      OFFSET 43.7702 0 0
      CHANNELS 3 Zrotation Xrotation Yrotation
      JOINT LeftFoot
      {
        OFFSET 40.6238 0 0
        CHANNELS 3 Zrotation Xrotation Yrotation
        JOINT LeftToeBase
        {
          OFFSET 12.7242 0 0
          CHANNELS 3 Zrotation Xrotation Yrotation
          End Site
          {
            OFFSET 0 0 0
          }
        }
      }
    }
  }
  JOINT RightUpLeg
  {
    OFFSET -8.2249 1.95398 -2.59336
    CHANNELS 3 Zrotation Xrotation Yrotation
    JOINT RightLeg
    {
      OFFSET 43.5653 0 0
      CHANNELS 3 Zrotation Xrotation Yrotation
      JOINT RightFoot
      {
        OFFSET 40.6238 0 0
        CHANNELS 3 Zrotation Xrotation Yrotation
        JOINT RightToeBase
        {
          OFFSET 12.7242 0 0
          CHANNELS 3 Zrotation Xrotation Yrotation
          End Site
          {
            OFFSET 0 0 0
          }
        }
      }
    }
  }
  JOINT Spine
  {
    OFFSET 0.165834 0.87714 6.61349
    CHANNELS 3 Zrotation Xrotation Yrotation
    JOINT Spine1
    {
      OFFSET 7.38963 1.71661e-005 0
      CHANNELS 3 Zrotation Xrotation Yrotation
      JOINT Spine2
      {
        OFFSET 11.9445 1.14441e-005 0
        CHANNELS 3 Zrotation Xrotation Yrotation
        JOINT Spine3
        {
          OFFSET 14.7254 4.19617e-005 0
          CHANNELS 3 Zrotation Xrotation Yrotation
          JOINT Spine4
          {
            OFFSET 10.9679 0 0
            CHANNELS 3 Zrotation Xrotation Yrotation
            JOINT RightShoulder
            {
              OFFSET 2.46616 -1.6653 3.69651
              CHANNELS 3 Zrotation Xrotation Yrotation
              JOINT RightArm
              {
                OFFSET 13.0012 0 0
                CHANNELS 3 Zrotation Xrotation Yrotation
                JOINT RightForeArm
                {
                  OFFSET 28.7848 1.62311e-005 0
                  CHANNELS 3 Zrotation Xrotation Yrotation
                  JOINT RightHand
                  {
                    OFFSET 26.5688 1.62095e-005 0
                    CHANNELS 3 Zrotation Xrotation Yrotation
                    End Site
                    {
                      OFFSET 0 0 0
                    }
                  }
                }
              }
            }
            JOINT LeftShoulder
            {
              OFFSET 2.38034 -1.29275 -3.7523
              CHANNELS 3 Zrotation Xrotation Yrotation
              JOINT LeftArm
              {
                OFFSET 16.3182 6.07031e-005 0
                CHANNELS 3 Zrotation Xrotation Yrotation
                JOINT LeftForeArm
                {
                  OFFSET 27.0901 0 0
                  CHANNELS 3 Zrotation Xrotation Yrotation
                  JOINT LeftHand
                  {
                    OFFSET 24.5451 1.51738e-005 0
                    CHANNELS 3 Zrotation Xrotation Yrotation
                    End Site
                    {
                      OFFSET 0 0 0
                    }
                  }
                }
              }
            }
            JOINT Neck
            {
              OFFSET 5.0226 -0.0266342 0
              CHANNELS 3 Zrotation Xrotation Yrotation
              JOINT Head
              {
                OFFSET 6.69364 2.86102e-005 0
                CHANNELS 3 Zrotation Xrotation Yrotation
                End Site
                {
                  OFFSET 0 0 0
                }
              }
            }
          }
        }
      }
    }
  }
}
MOTION
Frames:	16
Frame Time:	0.0416667
-5.18431 97.5655 26.3283 -170.671 -87.1813 -164.163 -168.485 11.4764 105.502 -32.172 16.1169 0.882576 80.7879 14.0678 -4.63744 26.4895 -8.30306 15.2665 177.619 2.80928 102.998 -23.0162 -3.7803 3.24021 76.0207 -7.16382 -0.721826 16.9302 3.2128 6.39078 0.388017 7.75925 -91.1066 11.3526 0.256221 -2.22933 -0.320214 0.15787 -2.23845 -22.8421 0.914243 -2.0494 -2.82946 0.914236 -2.04941 90.5423 -29.8108 -105.752 45.5514 5.654 -8.78409 -6.04602 -51.3169 -5.94386 -18.3842 1.74284 -16.382 -89.7607 -51.1855 79.3327 -21.9223 -1.34753 -21.9413 -14.4273 30.1058 -0.0136181 7.21481 -0.49898 -12.2757 7.86696 0.0272178 -9.72045 -1.45689 2.01719 -2.20865 
-5.23838 97.5756 25.8726 -153.286 -87.0886 -146.568 -168.372 11.8729 105.625 -32.2291 15.3493 0.847369 80.8726 14.1874 -4.83442 26.2195 -8.59564 15.488 178.149 2.99762 103.421 -22.2347 -4.02099 2.70384 75.6189 -6.26798 -0.300335 16.7379 3.39292 6.11972 0.323107 7.73811 -91.1023 11.3937 0.128645 -2.20833 -0.279112 0.0313516 -2.21185 -22.8007 0.786247 -2.06768 -2.78804 0.786244 -2.06769 90.1737 -30.4136 -106.259 44.9413 5.85923 -9.05989 -6.06016 -51.4645 -5.95407 -18.9415 1.7318 -15.9664 -89.2804 -50.8906 79.9835 -22.259 -0.9882 -22.5621 -14.5054 31.2923 -0.0131966 9.78848 -0.561809 -10.5953 7.63015 -0.0927077 -11.1901 -1.85308 2.17834 -3.87915 
-5.18962 97.5135 25.4233 -141.614 -87.1149 -135.033 -168.402 12.4954 105.366 -32.4337 14.979 0.728236 80.7496 14.2262 -4.6901 26.697 -8.37581 15.6786 178.13 3.51176 103.273 -21.891 -4.48055 2.50492 75.5797 -6.05488 -0.932636 16.7554 2.87402 7.50021 0.241486 7.73151 -91.0822 11.4056 -0.0245463 -2.15298 -0.267108 -0.119249 -2.14983 -22.7888 0.623516 -2.0609 -2.77613 0.623505 -2.06092 89.9327 -30.4897 -106.706 44.2994 6.14251 -9.10564 -6.19132 -52.7978 -6.05045 -19.0636 1.89816 -16.9048 -89.435 -50.9765 79.7712 -22.3099 -1.1654 -22.9811 -14.4473 31.7401 -0.0130439 8.07763 -0.571915 -12.3905 7.86939 -0.602053 -12.0477 -2.15658 1.88847 -4.57616 
-5.15757 97.4662 24.8364 -132.009 -86.5016 -125.453 -168.368 12.7827 105.235 -32.7954 14.3439 0.691689 80.6297 14.2038 -4.78301 27.12 -8.47316 16.4264 178.139 4.03802 103.196 -22.3372 -4.82251 2.3357 75.3702 -5.62078 -0.182648 17.4267 2.69267 7.25994 0.166799 7.76217 -91.0491 11.3434 -0.157079 -2.07339 -0.329156 -0.248165 -2.06449 -22.8515 0.473187 -2.0248 -2.83883 0.47319 -2.02481 89.8881 -30.7254 -106.704 44.2278 6.16457 -9.14681 -6.17374 -52.6227 -6.03736 -18.1156 1.92417 -17.7254 -89.1026 -50.469 80.164 -22.7545 -1.45005 -22.7524 -14.3597 30.5104 -0.0129935 8.65466 -0.642989 -12.4056 8.0892 -0.789414 -13.0319 -2.31581 1.94264 -4.5234 
-4.95866 97.5542 24.5383 -125.459 -85.1911 -118.607 -168.092 12.3494 105.416 -32.8295 12.7575 0.651566 80.8255 14.0512 -5.51328 27.3729 -8.42458 16.6668 178.167 3.57851 103.158 -21.9311 -6.23846 2.37348 74.8687 -5.73482 -0.551846 17.4328 2.44609 7.9515 0.209423 7.80551 -91.0821 11.257 -0.0868595 -2.14585 -0.415661 -0.181199 -2.13995 -22.9373 0.561929 -2.07282 -2.92463 0.561932 -2.07281 90.0007 -30.5207 -106.56 44.4496 6.14925 -8.81861 -6.177 -52.6575 -6.03977 -18.9961 1.85115 -16.6654 -89.1029 -50.4167 80.1531 -22.6999 -1.19094 -22.6465 -14.3083 33.2075 -0.0137986 7.28068 -0.455609 -12.1734 7.14825 -0.579658 -13.7678 -0.780264 2.13322 -4.24108 
-4.70691 97.5508 24.4922 -123.503 -85.1675 -116.466 -168.24 12.586 105.366 -33.1198 12.7538 0.707961 80.9551 14.2416 -5.19638 27.0259 -8.56419 16.4802 178.166 3.51426 103.097 -21.4804 -6.22876 2.41179 75.2064 -6.15973 -0.936806 17.2026 2.17602 8.96319 0.168665 7.80893 -91.1232 11.2488 -0.18698 -2.21773 -0.424001 -0.284377 -2.20737 -22.9444 0.488014 -2.17146 -2.93179 0.488024 -2.17146 90.1077 -30.4288 -106.384 43.8319 6.40812 -8.90723 -6.23691 -53.2441 -6.08444 -17.9204 1.99054 -18.2915 -89.3553 -50.9376 79.882 -22.0408 -0.711621 -23.043 -14.6201 32.6085 -0.0143761 7.81436 -0.487545 -11.8622 7.40301 -0.62876 -13.8418 -0.796812 2.12398 -4.67189 
-4.26485 97.6308 24.4928 -122.821 -85.0193 -115.822 -168.444 12.3431 104.938 -33.0331 12.3217 0.755668 80.8684 14.2846 -4.98928 27.1457 -8.6158 16.7409 177.776 3.30727 102.468 -21.2216 -6.20651 2.62745 74.883 -5.73947 0.453625 18.4851 2.08557 7.78684 0.167662 7.80693 -91.158 11.2523 -0.205218 -2.28514 -0.420592 -0.305565 -2.27392 -22.9401 0.490872 -2.24124 -2.92744 0.490868 -2.24125 90.216 -30.2414 -106.24 44.0103 6.33404 -8.87908 -6.16496 -52.5374 -6.03085 -18.1121 2.02138 -18.3533 -89.7052 -51.3281 79.4437 -22.0862 -0.625363 -23.2451 -14.7423 33.0716 -0.0153387 7.94333 -0.472018 -11.7034 7.0812 -0.731666 -13.4939 -0.387174 1.88089 -5.49033 
-3.54066 97.7822 24.6462 -123.228 -84.803 -116.42 -168.8 11.5485 104.135 -32.5419 11.4487 0.850979 80.8113 14.3037 -4.96141 27.3504 -8.58302 16.9496 177.464 2.8869 101.631 -20.9022 -6.50514 2.60451 74.2378 -5.23739 1.66838 19.8613 1.98063 6.47503 0.180559 7.81429 -91.156 11.2378 -0.178459 -2.28393 -0.435113 -0.278784 -2.27387 -22.9547 0.516029 -2.23203 -2.94203 0.516015 -2.23206 90.0843 -30.5067 -106.401 44.1982 6.19712 -9.07451 -6.05298 -51.3911 -5.94898 -18.2709 1.77987 -16.684 -89.7967 -51.2282 79.2884 -22.078 -0.441201 -23.6728 -14.8014 33.539 -0.016485 7.88762 -0.376259 -10.8349 6.70977 -0.810895 -14.0765 -0.257188 1.87708 -5.11484 
-2.48612 98.051 24.8672 -124.086 -84.4547 -117.86 -169.645 10.042 102.524 -31.4244 9.66081 1.11013 80.6028 14.2273 -5.15384 27.2469 -8.91248 17.457 177.165 2.34746 100.482 -20.5051 -7.4791 2.28821 73.998 -5.62826 0.310311 19.3641 1.50481 8.49254 0.222212 7.83965 -91.1266 11.1883 -0.0814313 -2.2347 -0.484527 -0.179679 -2.22897 -23.005 0.593794 -2.15595 -2.99237 0.593794 -2.15595 89.8617 -30.5627 -106.817 43.7129 6.39539 -9.16911 -6.23366 -53.2134 -6.082 -17.3252 1.72463 -16.9813 -89.8144 -51.2082 79.2582 -22.5392 -0.224124 -23.9625 -14.7906 33.4413 -0.0176584 7.30936 -0.346854 -11.0592 6.6582 -0.786107 -13.8095 -0.402664 1.84009 -5.53786 
-1.21814 98.3636 25.1444 -127.88 -83.9661 -122.515 -170.315 7.98326 100.673 -29.832 8.41821 1.16033 80.1173 14.0771 -4.97689 25.6307 -9.19596 15.8823 176.765 1.50959 98.8673 -20.191 -8.52902 1.79603 73.3597 -5.57081 -0.0342987 20.7427 1.1161 8.0528 0.251168 7.88305 -91.0638 11.103 0.00626451 -2.11771 -0.569647 -0.0869222 -2.11593 -23.0919 0.642304 -2.018 -3.07924 0.6423 -2.01801 89.8356 -30.6891 -106.82 43.8582 6.36002 -9.04706 -6.12279 -52.1117 -5.9998 -17.6934 1.99213 -18.5057 -89.6057 -50.8397 79.4909 -23.054 0.342941 -23.8953 -14.8281 33.5 -0.0189498 7.38007 -0.391874 -11.3321 6.09253 -0.973223 -14.8994 -0.124995 1.79483 -5.12329 
0.207594 98.8232 25.4346 -129.429 -83.5359 -124.888 -170.443 6.13585 98.9948 -27.7381 8.041 0.736311 79.1451 13.5937 -4.13472 24.6897 -9.35002 14.9875 176.138 0.506948 97.0462 -19.0977 -9.61969 1.52869 72.4592 -5.639 -0.29788 21.7302 0.782725 7.88734 0.26685 7.89951 -91.0234 11.0707 0.0565426 -2.04198 -0.601822 -0.0333623 -2.0425 -23.1251 0.667517 -1.93066 -3.11248 0.667514 -1.93067 89.8036 -30.7509 -106.86 44.1009 6.17006 -9.34982 -6.12796 -52.1632 -6.00344 -18.2572 1.70212 -16.2034 -89.7363 -50.9924 79.329 -23.2191 0.531151 -23.6916 -14.8879 34.0147 -0.0203957 7.1093 -0.3556 -11.3128 6.05784 -0.915149 -15.1384 0.384773 1.85094 -5.91359 
1.76979 99.3525 25.689 -132.078 -83.5214 -128.566 -170.27 4.24968 97.3583 -24.9965 8.67129 -0.0617721 77.82 12.7541 -3.16281 22.9584 -9.67156 13.4766 175.523 -0.264096 95.1284 -18.1529 -10.2074 1.09037 71.3997 -5.38525 0.134048 22.6416 0.840684 6.53196 0.229624 7.90537 -90.9033 11.0601 0.0381717 -1.80118 -0.612042 -0.0411258 -1.80112 -23.138 0.577653 -1.70649 -3.12533 0.577654 -1.7065 89.4921 -31.0505 -107.353 44.1606 6.1148 -9.4551 -6.07339 -51.6025 -5.96373 -17.7887 1.58785 -15.7593 -89.5665 -50.3813 79.4553 -23.4322 0.549257 -23.7332 -14.8648 34.3943 -0.0218272 6.18461 -0.269 -11.4889 6.7162 -1.27877 -15.9457 0.571679 1.70648 -6.79129 
3.51831 99.7728 25.8714 -134.663 -84.0643 -132.107 -170.997 2.86778 95.3378 -22.3812 8.95621 -0.405799 76.6776 11.8677 -2.59689 21.3673 -10.065 12.3306 174.688 -0.497613 93.0972 -17.1555 -10.2756 0.8956 70.3382 -5.11618 0.820934 23.9886 0.578989 5.57527 0.194108 7.85513 -90.7848 11.1611 0.0217583 -1.56416 -0.510794 -0.0470895 -1.56361 -23.0389 0.490795 -1.48534 -3.0263 0.490795 -1.48535 89.2709 -31.0045 -107.801 44.7369 5.9081 -9.22909 -6.02867 -51.1345 -5.93132 -18.0744 1.79519 -16.9218 -89.4498 -50.6412 79.682 -22.892 0.353855 -23.6949 -14.7877 34.5984 -0.0231823 6.36692 -0.264579 -11.2528 7.53577 -1.76018 -16.0542 0.550503 1.34486 -7.82426 
5.21518 100.136 25.9759 -136.707 -84.8183 -135.576 -172.688 1.3136 92.6045 -19.3667 8.19044 -0.281782 75.1405 10.6038 -2.00499 19.8825 -10.4602 11.3568 173.518 0.111896 90.5421 -16.7037 -10.7051 0.791304 69.5106 -5.31697 0.770365 25.352 0.054342 5.46686 0.209402 7.77439 -90.5652 11.3242 0.153385 -1.1404 -0.347215 0.103048 -1.14605 -22.8789 0.489003 -1.0416 -2.86629 0.489011 -1.0416 89.1733 -31.3622 -107.851 45.7891 5.34366 -9.50482 -6.07215 -51.5905 -5.96279 -18.1509 1.4329 -14.545 -89.3181 -49.7396 79.6951 -23.4946 0.0922037 -23.4597 -14.7027 34.3603 -0.02433 5.28466 -0.239663 -12.4188 8.08135 -2.37513 -17.0642 1.18008 1.00041 -7.53156 
6.87469 100.445 26.1192 -142.711 -84.3823 -142.409 -173.701 -0.960915 90.7754 -16.424 7.56046 -0.21489 74.3113 9.17249 -1.86735 17.5578 -11.4683 10.5548 172.241 -0.90128 88.5849 -16.5328 -11.743 0.75665 68.865 -5.73928 1.24064 26.791 -0.0998667 3.8189 0.245381 7.77436 -90.466 11.3252 0.271128 -0.955109 -0.346103 0.228839 -0.966133 -22.8792 0.545628 -0.829488 -2.86657 0.545641 -0.829483 89.3778 -30.2755 -107.881 46.9488 4.91031 -9.12423 -6.08028 -51.6748 -5.96861 -18.5478 2.04524 -18.1794 -89.3882 -50.3772 79.7193 -22.9043 -0.107914 -21.8398 -14.6504 31.6329 -0.0246429 6.14612 -0.406062 -12.6523 8.54898 -2.26677 -15.5457 0.627055 0.864358 -8.2846 
8.50312 100.343 25.9622 -145.814 -83.837 -146.263 -174.299 -1.73707 88.8031 -16.1544 7.29297 -0.373546 74.238 7.99114 -1.56169 15.866 -11.9294 9.55503 171.063 0.117796 86.5808 -18.5225 -12.9334 0.535215 68.9604 -6.31888 2.02088 28.7896 -0.540452 2.1823 0.254383 7.75282 -90.3128 11.3691 0.360284 -0.659186 -0.301981 0.330923 -0.6744 -22.8366 0.541738 -0.520432 -2.82399 0.541739 -0.52043 89.5082 -30.0873 -107.698 48.2067 4.24663 -9.36489 -6.02994 -51.1487 -5.93214 -20.3767 2.19255 -17.7978 -89.519 -50.8286 79.6175 -21.9854 -1.03459 -18.8011 -14.2481 28.3554 -0.0247022 4.72035 -0.501629 -15.1861 8.33244 -1.98844 -14.2943 1.00063 0.806358 -8.4462 
